<svg width="99" height="177" viewBox="0 0 99 177" fill="none" xmlns="http://www.w3.org/2000/svg">
<path d="M85.7206 176.921H19.9676C16.4456 176.921 13.0677 175.523 10.5773 173.034C8.08681 170.545 6.68768 167.17 6.68768 163.65V13.2118C6.70322 9.70243 8.10929 6.34208 10.5981 3.86606C13.0868 1.39004 16.4557 -3.43543e-05 19.9676 6.36852e-10H85.7206C89.2325 -3.43543e-05 92.6013 1.39004 95.0901 3.86606C97.5789 6.34208 98.985 9.70243 99.0005 13.2118V163.65C99.0005 167.17 97.6014 170.545 95.1109 173.034C92.6205 175.523 89.2426 176.921 85.7206 176.921ZM19.9676 2.87725C17.2248 2.87725 14.5943 3.96606 12.6548 5.90417C10.7154 7.84228 9.62571 10.4709 9.62571 13.2118V163.65C9.61796 165.012 9.87982 166.363 10.3961 167.623C10.9123 168.884 11.6728 170.03 12.6339 170.996C13.595 171.962 14.7377 172.728 15.9963 173.251C17.2548 173.774 18.6045 174.044 19.9676 174.044H85.7206C87.0836 174.044 88.4334 173.774 89.6919 173.251C90.9505 172.728 92.0932 171.962 93.0543 170.996C94.0154 170.03 94.7759 168.884 95.2921 167.623C95.8084 166.363 96.0702 165.012 96.0625 163.65V13.2118C96.0625 10.4709 94.9728 7.84228 93.0334 5.90417C91.0939 3.96606 88.4634 2.87725 85.7206 2.87725H19.9676Z" fill="#FB6165"/>
<path d="M52.9024 168.198C51.4767 168.21 50.0797 167.794 48.8887 167.002C47.6976 166.211 46.7662 165.08 46.2125 163.752C45.6589 162.425 45.508 160.962 45.779 159.548C46.0501 158.134 46.7307 156.834 47.7347 155.811C48.7387 154.789 50.0209 154.09 51.4184 153.805C52.8158 153.52 54.2656 153.66 55.5839 154.209C56.9023 154.757 58.0296 155.689 58.823 156.885C59.6163 158.082 60.0399 159.489 60.0399 160.93C60.0249 162.842 59.2699 164.674 57.9363 166.032C56.6026 167.39 54.796 168.168 52.9024 168.198ZM52.9024 156.557C52.0437 156.545 51.201 156.791 50.4814 157.265C49.7618 157.738 49.1978 158.417 48.8611 159.215C48.5244 160.013 48.4303 160.894 48.5907 161.746C48.7511 162.598 49.1587 163.383 49.7618 164C50.3649 164.618 51.1362 165.04 51.9776 165.214C52.8189 165.387 53.6924 165.304 54.4868 164.975C55.2813 164.646 55.961 164.086 56.4394 163.365C56.9177 162.645 57.1732 161.797 57.1732 160.93C57.1734 159.78 56.7252 158.677 55.9259 157.858C55.1266 157.04 54.0404 156.572 52.9024 156.557Z" fill="#FB6165"/>
<path d="M86.9163 22.969H18.7656C18.3761 22.969 18.0025 22.8158 17.727 22.5432C17.4516 22.2706 17.2969 21.9008 17.2969 21.5153C17.2969 21.1297 17.4516 20.7599 17.727 20.4873C18.0025 20.2147 18.3761 20.0615 18.7656 20.0615H86.9163C87.3058 20.0615 87.6794 20.2147 87.9549 20.4873C88.2303 20.7599 88.385 21.1297 88.385 21.5153C88.385 21.9008 88.2303 22.2706 87.9549 22.5432C87.6794 22.8158 87.3058 22.969 86.9163 22.969Z" fill="#FB6165"/>
<path d="M86.9198 149.414H18.7691C18.5558 149.459 18.3356 149.455 18.1243 149.4C17.913 149.346 17.7159 149.244 17.5474 149.1C17.3788 148.957 17.243 148.777 17.1498 148.573C17.0565 148.368 17.0081 148.145 17.0081 147.919C17.0081 147.692 17.0565 147.469 17.1498 147.264C17.243 147.06 17.3788 146.88 17.5474 146.737C17.7159 146.593 17.913 146.491 18.1243 146.437C18.3356 146.382 18.5558 146.378 18.7691 146.423H86.9198C87.2518 146.493 87.5503 146.68 87.7647 146.952C87.9791 147.225 88.0962 147.566 88.0962 147.919C88.0962 148.271 87.9791 148.612 87.7647 148.885C87.5503 149.157 87.2518 149.344 86.9198 149.414Z" fill="#FB6165"/>
<path d="M39.3831 12.3276H33.1617C32.9486 12.3705 32.7285 12.3659 32.5174 12.3142C32.3063 12.2625 32.1095 12.1649 31.9411 12.0285C31.7728 11.8922 31.6371 11.7205 31.5439 11.5258C31.4507 11.3312 31.4023 11.1184 31.4023 10.903C31.4023 10.6875 31.4507 10.4748 31.5439 10.2801C31.6371 10.0855 31.7728 9.91372 31.9411 9.77738C32.1095 9.64103 32.3063 9.54347 32.5174 9.49174C32.7285 9.44002 32.9486 9.43542 33.1617 9.47829H39.3831C39.5962 9.43542 39.8162 9.44002 40.0273 9.49174C40.2384 9.54347 40.4353 9.64103 40.6037 9.77738C40.772 9.91372 40.9077 10.0855 41.0009 10.2801C41.094 10.4748 41.1424 10.6875 41.1424 10.903C41.1424 11.1184 41.094 11.3312 41.0009 11.5258C40.9077 11.7205 40.772 11.8922 40.6037 12.0285C40.4353 12.1649 40.2384 12.2625 40.0273 12.3142C39.8162 12.3659 39.5962 12.3705 39.3831 12.3276Z" fill="#FB6165"/>
<path d="M74.7106 12.3276H47.262C47.049 12.3705 46.8292 12.3659 46.6182 12.3142C46.4073 12.2625 46.2106 12.1649 46.0423 12.0285C45.8741 11.8922 45.7385 11.7205 45.6454 11.5258C45.5523 11.3312 45.5039 11.1184 45.5039 10.903C45.5039 10.6875 45.5523 10.4748 45.6454 10.2801C45.7385 10.0855 45.8741 9.91372 46.0423 9.77738C46.2106 9.64103 46.4073 9.54347 46.6182 9.49174C46.8292 9.44002 47.049 9.43542 47.262 9.47829H74.7106C74.9235 9.43542 75.1434 9.44002 75.3544 9.49174C75.5653 9.54347 75.762 9.64103 75.9303 9.77738C76.0985 9.91372 76.2341 10.0855 76.3272 10.2801C76.4203 10.4748 76.4687 10.6875 76.4687 10.903C76.4687 11.1184 76.4203 11.3312 76.3272 11.5258C76.2341 11.7205 76.0985 11.8922 75.9303 12.0285C75.762 12.1649 75.5653 12.2625 75.3544 12.3142C75.1434 12.3659 74.9235 12.3705 74.7106 12.3276Z" fill="#FB6165"/>
<path d="M1.45375 37.5064C1.06819 37.5064 0.69839 37.3514 0.42576 37.0755C0.15313 36.7996 0 36.4255 0 36.0354V24.1493C0 23.7591 0.15313 23.385 0.42576 23.1091C0.69839 22.8332 1.06819 22.6782 1.45375 22.6782C1.8393 22.6782 2.2091 22.8332 2.48173 23.1091C2.75436 23.385 2.90749 23.7591 2.90749 24.1493V36.0354C2.90749 36.4255 2.75436 36.7996 2.48173 37.0755C2.2091 37.3514 1.8393 37.5064 1.45375 37.5064Z" fill="#FB6165"/>
<path d="M1.45375 64.8369C1.06819 64.8369 0.69839 64.6821 0.42576 64.4065C0.15313 64.131 0 63.7572 0 63.3675V44.5002C0 44.1105 0.15313 43.7368 0.42576 43.4612C0.69839 43.1856 1.06819 43.0308 1.45375 43.0308C1.8393 43.0308 2.2091 43.1856 2.48173 43.4612C2.75436 43.7368 2.90749 44.1105 2.90749 44.5002V63.3675C2.90749 63.7572 2.75436 64.131 2.48173 64.4065C2.2091 64.6821 1.8393 64.8369 1.45375 64.8369Z" fill="#FB6165"/>
<path d="M52.218 102.489C51.8819 102.421 51.5798 102.242 51.3628 101.98C51.1458 101.718 51.0273 101.39 51.0273 101.052C51.0273 100.713 51.1458 100.385 51.3628 100.124C51.5798 99.8616 51.8819 99.6818 52.218 99.6145C52.8487 99.6145 53.4536 99.3673 53.8997 98.9273C54.3457 98.4873 54.5963 97.8905 54.5963 97.2682C54.5963 96.8793 54.7529 96.5063 55.0316 96.2313C55.3104 95.9563 55.6885 95.8018 56.0827 95.8018C56.477 95.8018 56.8551 95.9563 57.1339 96.2313C57.4126 96.5063 57.5692 96.8793 57.5692 97.2682C57.5692 97.9587 57.4305 98.6424 57.1609 99.2796C56.8912 99.9169 56.4961 100.495 55.9984 100.981C55.5007 101.466 54.9103 101.849 54.2614 102.108C53.6125 102.367 52.9179 102.496 52.218 102.489Z" fill="#FB6165"/>
<path d="M52.9173 107.577C51.0771 107.577 49.2783 107.032 47.7483 106.009C46.2183 104.987 45.0257 103.534 44.3215 101.834C43.6173 100.134 43.4331 98.2629 43.7921 96.4581C44.1511 94.6533 45.0371 92.9955 46.3383 91.6943C47.6395 90.3931 49.2973 89.507 51.1021 89.148C52.9069 88.789 54.7777 88.9733 56.4778 89.6775C58.1779 90.3817 59.6308 91.5742 60.6532 93.1042C61.6755 94.6342 62.2212 96.4331 62.2212 98.2732C62.2059 100.736 61.2207 103.094 59.4792 104.835C57.7376 106.577 55.3801 107.562 52.9173 107.577ZM52.9173 91.8365C51.6418 91.8249 50.3915 92.1925 49.3253 92.8927C48.2592 93.5929 47.4252 94.5941 46.929 95.7692C46.4328 96.9443 46.297 98.2403 46.5387 99.4927C46.7804 100.745 47.3888 101.898 48.2866 102.804C49.1844 103.71 50.3311 104.328 51.5813 104.582C52.8314 104.835 54.1286 104.711 55.3082 104.225C56.4878 103.74 57.4967 102.915 58.2066 101.855C58.9165 100.796 59.2954 99.5488 59.2954 98.2732C59.2955 96.5762 58.6255 94.9478 57.431 93.7423C56.2365 92.5369 54.6142 91.8519 52.9173 91.8365Z" fill="#FB6165"/>
<path d="M64.8145 94.2025C64.6293 94.2063 64.4453 94.1717 64.274 94.1008C64.1027 94.03 63.9479 93.9244 63.8191 93.7906C63.5429 93.5235 63.382 93.1582 63.3711 92.7732C63.3601 92.3882 63.4999 92.0143 63.7605 91.7317L87.8853 65.26C87.9853 65.1595 88.0646 65.0403 88.1187 64.9091C88.1728 64.7779 88.2007 64.6373 88.2007 64.4953C88.2007 64.3532 88.1728 64.2126 88.1187 64.0813C88.0646 63.9501 87.9853 63.8309 87.8853 63.7305C87.7853 63.6301 87.6667 63.5504 87.5361 63.496C87.4054 63.4417 87.2656 63.4137 87.1242 63.4137C86.9828 63.4137 86.8428 63.4417 86.7122 63.496C86.5816 63.5504 86.4629 63.6301 86.3629 63.7305L59.3104 88.6728C59.1681 88.8041 59.0015 88.906 58.82 88.9727C58.6386 89.0393 58.4458 89.0694 58.2528 89.0612C58.0597 89.053 57.8702 89.0067 57.6949 88.9249C57.5197 88.8431 57.3623 88.7274 57.2316 88.5845C57.1009 88.4416 56.9995 88.2742 56.9331 88.0919C56.8668 87.9096 56.8369 87.716 56.8451 87.5221C56.8532 87.3282 56.8992 87.1378 56.9806 86.9618C57.062 86.7858 57.1771 86.6276 57.3194 86.4962L84.4306 61.6128C85.1994 61.0102 86.1616 60.7121 87.1346 60.7748C88.1077 60.8375 89.024 61.2568 89.7099 61.9531C90.3957 62.6493 90.8034 63.5742 90.8557 64.5524C90.9079 65.5306 90.6011 66.494 89.9933 67.2601L65.8685 93.7318C65.7337 93.8779 65.5708 93.9949 65.3896 94.0758C65.2085 94.1567 65.0128 94.1998 64.8145 94.2025Z" fill="#FB6165"/>
<path d="M19.9348 60.9117C19.749 60.9155 19.5644 60.8811 19.3925 60.8106C19.2207 60.7401 19.0653 60.6351 18.9361 60.502C18.7934 60.38 18.6778 60.2296 18.5968 60.0605C18.5157 59.8914 18.471 59.7073 18.4654 59.52C18.4599 59.3327 18.4937 59.1462 18.5647 58.9726C18.6356 58.799 18.7421 58.6422 18.8774 58.512C27.1528 49.6134 38.6169 44.3272 50.7805 43.8012C62.944 43.2752 74.8248 47.5519 83.8427 55.7026C83.9821 55.8252 84.0958 55.974 84.1772 56.1406C84.2587 56.3072 84.3061 56.4882 84.3171 56.6732C84.328 56.8582 84.3022 57.0435 84.2409 57.2184C84.1797 57.3934 84.0843 57.5545 83.9603 57.6925C83.8367 57.8403 83.6839 57.9613 83.5114 58.0478C83.339 58.1343 83.1505 58.1846 82.9577 58.1956C82.765 58.2066 82.572 58.178 82.3908 58.1116C82.2096 58.0452 82.0441 57.9424 81.9044 57.8096C73.4282 50.2118 62.2985 46.2312 50.9081 46.7238C39.5177 47.2163 28.7758 52.1426 20.9919 60.4435C20.7113 60.7267 20.3338 60.8939 19.9348 60.9117Z" fill="#FB6165"/>
<path d="M31.089 72.8326C30.7461 72.8199 30.4166 72.6956 30.15 72.4785C29.8691 72.2187 29.6951 71.8624 29.6625 71.4801C29.6299 71.0977 29.741 70.7169 29.9739 70.4128C33.0172 66.8322 36.7978 63.9593 41.054 61.9925C45.3102 60.0258 49.9404 59.0122 54.6245 59.022C60.9041 59.0105 67.0481 60.8578 72.2907 64.3338C72.459 64.429 72.6051 64.5595 72.719 64.7163C72.8328 64.8732 72.9119 65.0528 72.9508 65.243C72.9898 65.4332 72.9876 65.6296 72.9446 65.8189C72.9017 66.0082 72.8188 66.1861 72.7016 66.3404C72.4869 66.6557 72.1589 66.875 71.7867 66.952C71.4145 67.0291 71.0271 66.9579 70.706 66.7535C64.7145 62.7994 57.4911 61.1866 50.3984 62.2195C43.3057 63.2523 36.8341 66.8594 32.2042 72.3604C31.9092 72.6599 31.5081 72.8297 31.089 72.8326Z" fill="#FB6165"/>
<path d="M41.4289 83.0086C41.1015 83.0071 40.787 82.8799 40.5489 82.653C40.3941 82.5426 40.2639 82.4007 40.167 82.2362C40.0701 82.0718 40.0087 81.8885 39.9865 81.6985C39.9644 81.5084 39.9821 81.3158 40.0385 81.1331C40.095 80.9504 40.1889 80.7818 40.3141 80.6382C42.0231 78.4614 44.2003 76.7058 46.6804 75.5046C49.1606 74.3034 51.8788 73.688 54.6293 73.7049C57.0843 73.7018 59.516 74.185 61.7868 75.1271C62.1354 75.295 62.408 75.5902 62.5495 75.9532C62.6911 76.3161 62.6911 76.7198 62.5495 77.0827C62.3833 77.4348 62.091 77.7101 61.7317 77.8531C61.3724 77.9961 60.9728 77.996 60.6135 77.853C58.7247 77.0268 56.6876 76.6032 54.6293 76.6086C52.3084 76.6094 50.0172 77.137 47.9253 78.1524C45.8334 79.1679 43.9941 80.6452 42.5436 82.4752C42.4072 82.6405 42.2369 82.7739 42.0444 82.866C41.8519 82.9581 41.6419 83.0068 41.4289 83.0086Z" fill="#FB6165"/>
<path d="M52.7708 119.207C48.0363 119.207 43.4956 117.325 40.1477 113.975C36.7999 110.625 34.9192 106.081 34.9192 101.343C34.8759 101.13 34.8804 100.909 34.9327 100.698C34.9849 100.487 35.0834 100.289 35.2211 100.121C35.3588 99.9523 35.5322 99.8165 35.7288 99.7232C35.9253 99.6299 36.1403 99.5815 36.3579 99.5815C36.5754 99.5815 36.7902 99.6299 36.9868 99.7232C37.1834 99.8165 37.3568 99.9523 37.4945 100.121C37.6321 100.289 37.7307 100.487 37.7829 100.698C37.8351 100.909 37.8398 101.13 37.7965 101.343C37.7965 105.317 39.3742 109.129 42.1824 111.939C44.9906 114.749 48.7994 116.328 52.7708 116.328C56.7423 116.328 60.5511 114.749 63.3593 111.939C66.1675 109.129 67.7451 105.317 67.7451 101.343C67.7019 101.13 67.7065 100.909 67.7588 100.698C67.811 100.487 67.9095 100.289 68.0472 100.121C68.1849 99.9523 68.3583 99.8165 68.5549 99.7232C68.7515 99.6299 68.9663 99.5815 69.1838 99.5815C69.4014 99.5815 69.6163 99.6299 69.8129 99.7232C70.0095 99.8165 70.1829 99.9523 70.3206 100.121C70.4583 100.289 70.5568 100.487 70.609 100.698C70.6613 100.909 70.6658 101.13 70.6225 101.343C70.6225 106.081 68.7418 110.625 65.3939 113.975C62.0461 117.325 57.5054 119.207 52.7708 119.207Z" fill="#FB6165"/>
<path d="M69.0421 139.704C68.8563 139.708 68.6717 139.673 68.4999 139.602C68.328 139.532 68.1725 139.426 68.0433 139.293C67.9027 139.161 67.7908 139.002 67.7142 138.825C67.6376 138.648 67.5981 138.458 67.5981 138.265C67.5981 138.073 67.6376 137.882 67.7142 137.705C67.7908 137.529 67.9027 137.369 68.0433 137.238L88.5492 116.745C88.6811 116.604 88.8403 116.492 89.0171 116.416C89.194 116.339 89.3847 116.3 89.5774 116.3C89.7701 116.3 89.9608 116.339 90.1376 116.416C90.3144 116.492 90.4738 116.604 90.6057 116.745C90.8617 117.026 91.0034 117.392 91.0034 117.772C91.0034 118.152 90.8617 118.519 90.6057 118.8L70.0997 139.293C69.9615 139.431 69.7962 139.538 69.6142 139.609C69.4321 139.68 69.2372 139.712 69.0421 139.704Z" fill="#FB6165"/>
<path d="M79.3841 139.704C79.1881 139.712 78.9924 139.68 78.8095 139.609C78.6266 139.538 78.4605 139.43 78.3217 139.291C78.0645 139.009 77.9219 138.641 77.9219 138.259C77.9219 137.878 78.0645 137.51 78.3217 137.228L86.1728 129.388C86.457 129.175 86.8086 129.071 87.1629 129.096C87.5173 129.122 87.8507 129.274 88.1019 129.524C88.3531 129.775 88.5053 130.108 88.5305 130.462C88.5557 130.816 88.4521 131.167 88.2389 131.451L80.3878 139.291C80.2579 139.425 80.1017 139.531 79.9291 139.602C79.7564 139.673 79.5708 139.708 79.3841 139.704Z" fill="#FB6165"/>
</svg>
