<svg width="191" height="188" viewBox="0 0 191 188" fill="none" xmlns="http://www.w3.org/2000/svg">
<path d="M188.421 96.2378H167.605C167.186 96.2378 166.783 96.0712 166.487 95.7745C166.19 95.4779 166.023 95.0755 166.023 94.656C166.023 94.2365 166.19 93.8342 166.487 93.5376C166.783 93.2409 167.186 93.0742 167.605 93.0742H188.421C188.84 93.0742 189.243 93.2409 189.539 93.5376C189.836 93.8342 190.003 94.2365 190.003 94.656C190.003 95.0755 189.836 95.4779 189.539 95.7745C189.243 96.0712 188.84 96.2378 188.421 96.2378Z" fill="#29CCC4"/>
<path d="M181.457 103.199C181.257 103.207 181.057 103.171 180.871 103.095C180.685 103.018 180.518 102.903 180.382 102.756C180.23 102.614 180.11 102.442 180.027 102.252C179.945 102.061 179.902 101.856 179.902 101.648C179.902 101.441 179.945 101.236 180.027 101.045C180.11 100.855 180.23 100.683 180.382 100.541L186.202 94.657L180.382 88.7728C180.23 88.6308 180.11 88.4592 180.027 88.2688C179.945 88.0783 179.902 87.8731 179.902 87.6656C179.902 87.458 179.945 87.2527 180.027 87.0623C180.11 86.8718 180.23 86.7003 180.382 86.5583C180.684 86.2827 181.079 86.1299 181.489 86.1299C181.898 86.1299 182.293 86.2827 182.596 86.5583L189.556 93.5814C189.829 93.874 189.987 94.2565 189.999 94.657C189.985 95.076 189.829 95.478 189.556 95.7959L182.596 102.756C182.287 103.044 181.88 103.203 181.457 103.199Z" fill="#29CCC4"/>
<path d="M22.7141 96.2378H1.58174C1.16224 96.2378 0.760035 96.0712 0.463401 95.7745C0.166767 95.4779 0 95.0755 0 94.656C0 94.2365 0.166767 93.8342 0.463401 93.5376C0.760035 93.2409 1.16224 93.0742 1.58174 93.0742H22.7141C23.1336 93.0742 23.5358 93.2409 23.8324 93.5376C24.129 93.8342 24.2958 94.2365 24.2958 94.656C24.2958 95.0755 24.129 95.4779 23.8324 95.7745C23.5358 96.0712 23.1336 96.2378 22.7141 96.2378Z" fill="#29CCC4"/>
<path d="M8.60581 103.199C8.39566 103.208 8.18584 103.173 7.98979 103.097C7.79375 103.021 7.61587 102.904 7.46707 102.756L0.507362 95.7959C0.356049 95.6539 0.235454 95.4824 0.153012 95.2919C0.0705705 95.1015 0.0278931 94.8962 0.0278931 94.6887C0.0278931 94.4811 0.0705705 94.2758 0.153012 94.0854C0.235454 93.8949 0.356049 93.7234 0.507362 93.5814L7.46707 86.5583C7.76995 86.2827 8.16476 86.1299 8.5743 86.1299C8.98384 86.1299 9.37865 86.2827 9.68153 86.5583C9.83284 86.7003 9.95343 86.8718 10.0359 87.0623C10.1183 87.2527 10.1607 87.458 10.1607 87.6656C10.1607 87.8731 10.1183 88.0783 10.0359 88.2688C9.95343 88.4592 9.83284 88.6308 9.68153 88.7728L3.79722 94.657L9.68153 100.541C9.83284 100.683 9.95343 100.855 10.0359 101.045C10.1183 101.236 10.1607 101.441 10.1607 101.649C10.1607 101.856 10.1183 102.061 10.0359 102.252C9.95343 102.442 9.83284 102.614 9.68153 102.756C9.54234 102.9 9.37477 103.013 9.1897 103.089C9.00463 103.166 8.80591 103.203 8.60581 103.199Z" fill="#29CCC4"/>
<path d="M95.1559 187.792C94.7364 187.792 94.3339 187.625 94.0373 187.329C93.7407 187.032 93.5742 186.63 93.5742 186.21V167.102C93.5742 166.683 93.7407 166.28 94.0373 165.984C94.3339 165.687 94.7364 165.521 95.1559 165.521C95.5754 165.521 95.9776 165.687 96.2742 165.984C96.5708 166.28 96.7376 166.683 96.7376 167.102V186.21C96.7376 186.63 96.5708 187.032 96.2742 187.329C95.9776 187.625 95.5754 187.792 95.1559 187.792Z" fill="#29CCC4"/>
<path d="M95.16 187.792C94.7376 187.796 94.3297 187.637 94.021 187.349L87.0613 180.389C86.7857 180.086 86.6328 179.691 86.6328 179.282C86.6328 178.872 86.7857 178.478 87.0613 178.175C87.2033 178.023 87.3747 177.903 87.5652 177.82C87.7556 177.738 87.961 177.695 88.1685 177.695C88.376 177.695 88.5814 177.738 88.7719 177.82C88.9623 177.903 89.1337 178.023 89.2757 178.175L95.16 183.996L101.044 178.175C101.186 178.023 101.357 177.903 101.548 177.82C101.738 177.738 101.944 177.695 102.151 177.695C102.359 177.695 102.564 177.738 102.755 177.82C102.945 177.903 103.116 178.023 103.258 178.175C103.534 178.478 103.687 178.872 103.687 179.282C103.687 179.691 103.534 180.086 103.258 180.389L96.2354 187.349C96.0987 187.496 95.9317 187.612 95.7461 187.688C95.5604 187.765 95.3606 187.8 95.16 187.792Z" fill="#29CCC4"/>
<path d="M95.1559 23.7297C94.7472 23.73 94.3541 23.5721 94.0592 23.289C93.7644 23.0059 93.5906 22.6196 93.5742 22.2111V1.58471C93.5742 1.1652 93.7407 0.76283 94.0373 0.466188C94.3339 0.169546 94.7364 0.00292969 95.1559 0.00292969C95.5754 0.00292969 95.9776 0.169546 96.2742 0.466188C96.5708 0.76283 96.7376 1.1652 96.7376 1.58471V22.2111C96.7213 22.6196 96.5472 23.0059 96.2523 23.289C95.9574 23.5721 95.5647 23.73 95.1559 23.7297Z" fill="#29CCC4"/>
<path d="M102.12 10.0628C101.919 10.0709 101.719 10.0355 101.533 9.95903C101.348 9.88258 101.181 9.76684 101.044 9.61981L95.16 3.79888L89.2757 9.61981C89.1337 9.77113 88.9623 9.89172 88.7719 9.97417C88.5814 10.0566 88.376 10.0992 88.1685 10.0992C87.961 10.0992 87.7556 10.0566 87.5652 9.97417C87.3747 9.89172 87.2033 9.77113 87.0613 9.61981C86.7857 9.31692 86.6328 8.92211 86.6328 8.51256C86.6328 8.10302 86.7857 7.7082 87.0613 7.40531L94.021 0.445461C94.1698 0.296781 94.348 0.180631 94.544 0.104389C94.7401 0.0281475 94.9499 -0.0064918 95.16 0.0025927C95.3612 -0.00998834 95.5625 0.0233316 95.7489 0.100064C95.9352 0.176796 96.1015 0.294899 96.2354 0.445461L103.258 7.40531C103.534 7.7082 103.687 8.10302 103.687 8.51256C103.687 8.92211 103.534 9.31692 103.258 9.61981C102.95 9.90819 102.542 10.0668 102.12 10.0628Z" fill="#29CCC4"/>
<path d="M94.8418 149.702C88.8944 149.702 83.0735 147.108 78.0119 142.173C68.0153 132.429 62.0047 115.093 61.8782 95.8583C61.7516 81.4957 65.0416 67.8291 71.0523 57.5159C77.0629 47.2027 85.541 41.0021 94.4621 40.8755C100.599 40.749 106.546 43.3431 111.671 48.4048C121.668 58.1486 127.742 75.4217 127.868 94.6561C127.932 109.082 124.705 122.685 118.694 132.999C112.684 143.312 104.205 149.512 95.2211 149.702H94.8418ZM94.8418 43.9758H94.5254C78.0753 44.2922 64.7885 67.576 64.9783 95.8583C65.1048 114.017 70.9257 130.847 80.2264 139.895C84.7818 144.387 89.9067 146.665 95.1581 146.539C111.672 146.286 124.895 123.002 124.705 94.7194C124.578 76.5605 118.758 59.6671 109.52 50.6193C105.028 46.2536 99.9666 43.9758 94.8418 43.9758Z" fill="#29CCC4"/>
<path d="M94.8426 149.702C84.108 149.701 73.6132 146.526 64.6794 140.574C55.7455 134.623 48.7719 126.161 44.6356 116.255C40.4994 106.349 39.3854 95.4414 41.4341 84.9039C43.4829 74.3664 48.6025 64.6703 56.149 57.0359C63.6955 49.4014 73.3316 44.1698 83.8445 41.9993C94.3574 39.8289 105.278 40.8166 115.23 44.8381C125.183 48.8597 133.724 55.7354 139.778 64.6C145.833 73.4646 149.13 83.922 149.255 94.6561C149.338 101.802 148.013 108.894 145.356 115.528C142.698 122.162 138.76 128.207 133.766 133.319C128.772 138.43 122.82 142.508 116.25 145.319C109.68 148.13 102.621 149.62 95.4753 149.702H94.8426ZM94.9056 43.9758H94.2729C80.9829 44.5107 68.4199 50.1854 59.2325 59.8035C50.0452 69.4216 44.9517 82.2314 45.0255 95.5322C45.0994 108.833 50.335 121.586 59.6286 131.101C68.9221 140.616 81.5474 146.151 94.8426 146.539H95.4119C109.01 146.388 121.992 140.846 131.506 131.13C141.021 121.414 146.289 108.318 146.154 94.7194C146.004 81.2202 140.541 68.3239 130.948 58.8254C121.355 49.3269 108.405 43.9916 94.9056 43.9758Z" fill="#29CCC4"/>
<path d="M146.659 96.8711H43.0859C42.6664 96.8711 42.2642 96.7045 41.9676 96.4078C41.6709 96.1112 41.5042 95.7088 41.5042 95.2893C41.5042 94.8698 41.6709 94.4675 41.9676 94.1709C42.2642 93.8742 42.6664 93.7075 43.0859 93.7075H146.659C147.067 93.7239 147.454 93.8977 147.737 94.1926C148.02 94.4875 148.178 94.8805 148.177 95.2893C148.178 95.6981 148.02 96.0911 147.737 96.386C147.454 96.6809 147.067 96.8547 146.659 96.8711Z" fill="#29CCC4"/>
<path d="M94.842 148.627C94.4335 148.611 94.0472 148.437 93.7641 148.142C93.481 147.847 93.3229 147.454 93.3232 147.045V43.4701C93.3959 43.1125 93.59 42.7911 93.8725 42.5602C94.155 42.3293 94.5086 42.2031 94.8735 42.2031C95.2384 42.2031 95.592 42.3293 95.8745 42.5602C96.157 42.7911 96.3512 43.1125 96.4238 43.4701V147.045C96.4238 147.465 96.257 147.867 95.9604 148.164C95.6637 148.46 95.2615 148.627 94.842 148.627Z" fill="#29CCC4"/>
<path d="M94.336 70.4235C78.9614 70.4235 64.2827 68.7784 51.8818 65.6148C51.4899 65.4968 51.156 65.237 50.9454 64.886C50.7348 64.535 50.6627 64.118 50.7431 63.7167C50.7871 63.514 50.8722 63.3225 50.993 63.1539C51.1139 62.9854 51.2681 62.8433 51.4459 62.7366C51.6238 62.6299 51.8214 62.5608 52.027 62.5335C52.2326 62.5062 52.4416 62.5212 52.6412 62.5778C65.1686 65.7414 80.1004 67.3865 95.7281 67.2599C111.356 67.1334 124.895 65.4883 136.98 62.388C137.381 62.3076 137.798 62.3798 138.149 62.5904C138.5 62.801 138.76 63.1349 138.878 63.5269C138.974 63.9294 138.909 64.3535 138.696 64.7084C138.483 65.0632 138.14 65.3205 137.739 65.425C125.465 68.5886 110.913 70.297 95.7281 70.4235H94.336Z" fill="#29CCC4"/>
<path d="M52.3866 128.19C52.0058 128.19 51.6377 128.053 51.3501 127.803C51.0625 127.554 50.8744 127.209 50.8206 126.832C50.7667 126.455 50.8506 126.071 51.0569 125.751C51.2632 125.431 51.578 125.196 51.9436 125.09C64.2812 121.926 78.77 120.218 93.9548 120.155C109.14 120.091 125.021 121.673 137.864 124.963C138.265 125.068 138.608 125.325 138.821 125.68C139.034 126.035 139.099 126.459 139.003 126.861C138.885 127.267 138.615 127.611 138.25 127.823C137.885 128.035 137.452 128.098 137.042 128C124.514 124.773 109.582 123.128 93.9548 123.255C78.3271 123.382 64.7876 125.027 52.7663 128.127L52.3866 128.19Z" fill="#29CCC4"/>
<path d="M24.5492 81.8755H24.2328C23.8341 81.7845 23.486 81.5425 23.2618 81.2003C23.0377 80.8582 22.955 80.4426 23.0307 80.0407C23.8001 76.5153 24.8148 73.048 26.0676 69.6641C26.1378 69.4769 26.2444 69.3054 26.3811 69.1595C26.5179 69.0135 26.6821 68.8961 26.8643 68.8138C27.0466 68.7314 27.2431 68.686 27.4429 68.6799C27.6428 68.6738 27.8421 68.7072 28.029 68.7783C28.4232 68.9211 28.7445 69.2146 28.9224 69.5942C29.1004 69.9739 29.1205 70.4087 28.978 70.803C27.7882 74.0243 26.8158 77.3218 26.0676 80.6734C25.994 81.0192 25.802 81.3285 25.5248 81.548C25.2476 81.7674 24.9026 81.8833 24.5492 81.8755Z" fill="#29CCC4"/>
<path d="M34.2286 58.2754C33.9399 58.2491 33.6599 58.1628 33.4063 58.0223C33.0534 57.789 32.8039 57.4288 32.7096 57.0164C32.6154 56.6041 32.6834 56.1712 32.8999 55.8078C34.4184 53.4667 36.1268 51.1258 37.8351 48.9745C38.1071 48.6864 38.4772 48.5108 38.8725 48.4825C39.2677 48.4543 39.6593 48.5755 39.9695 48.8221C40.2797 49.0686 40.4862 49.4226 40.5478 49.8141C40.6095 50.2055 40.5219 50.6059 40.3025 50.9359C38.5939 53.0349 37.0094 55.2321 35.5573 57.5162C35.4182 57.7448 35.2234 57.9344 34.9911 58.0672C34.7587 58.1999 34.4962 58.2716 34.2286 58.2754Z" fill="#29CCC4"/>
<path d="M127.742 32.9667L127.046 32.777L125.528 32.0177C125.231 31.7954 125.022 31.4762 124.937 31.1157C124.852 30.7552 124.896 30.3761 125.062 30.0448C125.227 29.7135 125.504 29.4508 125.844 29.3026C126.183 29.1543 126.564 29.13 126.919 29.2337L128.501 29.993C128.682 30.0861 128.843 30.2146 128.973 30.3709C129.103 30.5272 129.201 30.7081 129.26 30.9029C129.319 31.0977 129.338 31.3024 129.316 31.5047C129.295 31.7071 129.233 31.903 129.134 32.0809C129.012 32.347 128.816 32.5722 128.569 32.7294C128.322 32.8865 128.035 32.969 127.742 32.9667Z" fill="#29CCC4"/>
<path d="M165.765 85.2294C165.397 85.2194 165.044 85.0812 164.767 84.8387C164.489 84.5961 164.306 84.2643 164.247 83.9007C162.656 74.3039 159.097 65.14 153.795 56.9845C148.492 48.829 141.56 41.8584 133.434 36.5104C133.096 36.279 132.861 35.9255 132.779 35.5243C132.696 35.123 132.772 34.7054 132.991 34.3593C133.1 34.1853 133.243 34.0351 133.412 33.9179C133.58 33.8008 133.771 33.7191 133.972 33.6777C134.173 33.6363 134.381 33.6361 134.582 33.6771C134.783 33.7181 134.974 33.7995 135.143 33.9163C143.643 39.4846 150.895 46.7576 156.439 55.2747C161.982 63.7917 165.697 73.3672 167.347 83.3946C167.383 83.6026 167.377 83.8157 167.329 84.0214C167.282 84.2271 167.193 84.4212 167.07 84.5922C166.946 84.7632 166.789 84.9076 166.609 85.0171C166.428 85.1265 166.227 85.1987 166.019 85.2294H165.765Z" fill="#29CCC4"/>
<path d="M157.289 132.429C157.024 132.434 156.762 132.368 156.53 132.24C156.172 132.027 155.907 131.688 155.79 131.288C155.673 130.889 155.711 130.46 155.897 130.088C158.293 125.909 160.264 121.5 161.781 116.928C161.952 116.594 162.235 116.331 162.581 116.187C162.927 116.043 163.314 116.026 163.671 116.14C164.028 116.254 164.333 116.491 164.532 116.81C164.73 117.128 164.809 117.506 164.755 117.877C163.193 122.675 161.136 127.298 158.618 131.67C158.483 131.903 158.289 132.096 158.056 132.229C157.823 132.363 157.558 132.432 157.289 132.429Z" fill="#29CCC4"/>
<path d="M95.6661 168.684C95.4364 168.731 95.1992 168.726 94.9716 168.669C94.744 168.613 94.5318 168.507 94.3503 168.359C94.1688 168.21 94.0226 168.023 93.9221 167.812C93.8217 167.6 93.7695 167.368 93.7695 167.134C93.7695 166.9 93.8217 166.668 93.9221 166.456C94.0226 166.244 94.1688 166.058 94.3503 165.909C94.5318 165.761 94.744 165.655 94.9716 165.598C95.1992 165.542 95.4364 165.537 95.6661 165.584C97.6907 165.52 99.7154 165.457 101.677 165.267C115.236 163.957 128.12 158.724 138.753 150.209C138.902 150.029 139.089 149.883 139.301 149.784C139.512 149.685 139.743 149.634 139.977 149.634C140.211 149.635 140.442 149.688 140.653 149.788C140.864 149.889 141.05 150.035 141.198 150.216C141.346 150.397 141.452 150.609 141.508 150.836C141.564 151.063 141.569 151.3 141.523 151.529C141.477 151.758 141.38 151.974 141.24 152.162C141.1 152.349 140.921 152.503 140.714 152.613C129.611 161.514 116.156 166.988 101.993 168.368C99.9052 168.557 97.8173 168.684 95.6661 168.684Z" fill="#29CCC4"/>
<path d="M58.7758 159.004C58.4818 159.008 58.1936 158.92 57.9531 158.751C48.6339 153.357 40.6205 145.973 34.4848 137.125C28.3492 128.276 24.2426 118.183 22.4586 107.564C22.3846 107.153 22.4764 106.73 22.7134 106.386C22.9505 106.042 23.3136 105.806 23.724 105.729C24.1328 105.671 24.5484 105.769 24.8884 106.004C25.2283 106.238 25.4678 106.592 25.559 106.995C27.2714 117.171 31.203 126.845 37.0749 135.331C42.9469 143.816 50.615 150.905 59.5348 156.093C59.8939 156.304 60.1551 156.649 60.2618 157.052C60.3684 157.454 60.3117 157.883 60.1042 158.244C59.9608 158.469 59.7651 158.656 59.5336 158.788C59.3021 158.92 59.0422 158.994 58.7758 159.004Z" fill="#29CCC4"/>
<path d="M57.2613 36.7629C57.0005 36.7605 56.744 36.6961 56.513 36.5751C56.282 36.4541 56.0833 36.2799 55.9328 36.0669C55.7137 35.7208 55.6374 35.3031 55.72 34.9019C55.8026 34.5006 56.0375 34.1471 56.3755 33.9156C64.5366 28.5252 73.7056 24.8446 83.3286 23.0963C83.528 23.0589 83.7328 23.0612 83.9314 23.1029C84.1299 23.1447 84.3185 23.2252 84.4859 23.3397C84.6534 23.4543 84.7964 23.6007 84.9073 23.7706C85.0182 23.9405 85.0945 24.1306 85.1319 24.33C85.1693 24.5295 85.1669 24.7343 85.1251 24.9329C85.0833 25.1314 85.003 25.3197 84.8885 25.4872C84.7739 25.6546 84.6274 25.7979 84.4575 25.9087C84.2876 26.0196 84.0974 26.0959 83.898 26.1333C74.6855 27.8295 65.9074 31.358 58.084 36.5098C57.8434 36.6789 57.5553 36.7675 57.2613 36.7629Z" fill="#29CCC4"/>
</svg>
