<svg width="182" height="169" viewBox="0 0 182 169" fill="none" xmlns="http://www.w3.org/2000/svg">
<path d="M113.561 164.899H12.7688C9.3823 164.899 6.13449 163.552 3.73991 161.156C1.34532 158.759 0 155.509 0 152.119V16.2985C0.0163194 11.9702 1.74568 7.82473 4.80944 4.76993C7.8732 1.71514 12.0217 -3.03227e-05 16.3463 4.94913e-07H113.561C113.959 -0.000318719 114.342 0.153791 114.63 0.430017C114.917 0.706243 115.087 1.08311 115.103 1.48166V140.821C115.103 141.231 114.94 141.623 114.651 141.913C114.362 142.202 113.97 142.365 113.561 142.365H12.7688C10.1839 142.365 7.70492 143.392 5.87717 145.222C4.04942 147.051 3.02247 149.532 3.02247 152.119C3.02247 154.706 4.04942 157.187 5.87717 159.017C7.70492 160.846 10.1839 161.874 12.7688 161.874H113.561C113.785 161.828 114.016 161.833 114.238 161.888C114.46 161.943 114.667 162.046 114.843 162.191C115.02 162.336 115.163 162.518 115.261 162.725C115.359 162.931 115.41 163.157 115.41 163.386C115.41 163.615 115.359 163.841 115.261 164.047C115.163 164.254 115.02 164.436 114.843 164.581C114.667 164.726 114.46 164.829 114.238 164.884C114.016 164.939 113.785 164.944 113.561 164.899ZM16.3463 3.02507C12.8233 3.02504 9.44363 4.42153 6.9467 6.90901C4.44977 9.3965 3.03878 12.7725 3.02247 16.2985V143.846C4.21992 142.429 5.71299 141.291 7.39669 140.512C9.08038 139.734 10.9141 139.333 12.7688 139.34H112.019V3.02507H16.3463Z" fill="#3C91E6"/>
<path d="M113.662 149.992H15.1942C14.7954 149.976 14.4182 149.807 14.1418 149.521C13.8654 149.235 13.7113 148.854 13.7117 148.457C13.7113 148.06 13.8654 147.679 14.1418 147.393C14.4182 147.107 14.7954 146.938 15.1942 146.922H113.662C114.072 146.922 114.465 147.084 114.754 147.372C115.044 147.66 115.207 148.05 115.207 148.457C115.207 148.864 115.044 149.254 114.754 149.542C114.465 149.83 114.072 149.992 113.662 149.992Z" fill="#3C91E6"/>
<path d="M113.555 157.532H15.1464C14.7975 157.461 14.4836 157.273 14.2583 156.999C14.033 156.725 13.9102 156.382 13.9102 156.028C13.9102 155.674 14.033 155.331 14.2583 155.057C14.4836 154.782 14.7975 154.594 15.1464 154.524H113.555C113.779 154.479 114.01 154.483 114.232 154.538C114.454 154.593 114.661 154.696 114.839 154.84C115.016 154.984 115.158 155.165 115.256 155.37C115.354 155.576 115.405 155.8 115.405 156.028C115.405 156.255 115.354 156.48 115.256 156.685C115.158 156.891 115.016 157.072 114.839 157.216C114.661 157.36 114.454 157.463 114.232 157.518C114.01 157.572 113.779 157.577 113.555 157.532Z" fill="#3C91E6"/>
<path d="M98.1043 127.278H22.621C22.2108 127.278 21.8172 127.116 21.5271 126.827C21.237 126.537 21.0742 126.145 21.0742 125.736V16.6846C21.0742 16.2756 21.237 15.8834 21.5271 15.5942C21.8172 15.305 22.2108 15.1426 22.621 15.1426H98.1043C98.5145 15.1426 98.9078 15.305 99.1979 15.5942C99.488 15.8834 99.6511 16.2756 99.6511 16.6846V125.736C99.6511 126.145 99.488 126.537 99.1979 126.827C98.9078 127.116 98.5145 127.278 98.1043 127.278ZM24.1678 124.194H96.6191V18.165H24.1678V124.194Z" fill="#3C91E6"/>
<path d="M68.1382 53.9909H54.4429C54.2189 54.0361 53.9877 54.0313 53.7658 53.9767C53.5439 53.9221 53.337 53.8191 53.16 53.6751C52.9831 53.5312 52.8405 53.3499 52.7426 53.1444C52.6446 52.9389 52.5938 52.7143 52.5938 52.4869C52.5938 52.2594 52.6446 52.0348 52.7426 51.8293C52.8405 51.6238 52.9831 51.4425 53.16 51.2986C53.337 51.1546 53.5439 51.0516 53.7658 50.997C53.9877 50.9424 54.2189 50.9376 54.4429 50.9828H68.1382C68.3622 50.9376 68.5934 50.9424 68.8153 50.997C69.0372 51.0516 69.2441 51.1546 69.4211 51.2986C69.598 51.4425 69.7406 51.6238 69.8386 51.8293C69.9365 52.0348 69.9871 52.2594 69.9871 52.4869C69.9871 52.7143 69.9365 52.9389 69.8386 53.1444C69.7406 53.3499 69.598 53.5312 69.4211 53.6751C69.2441 53.8191 69.0372 53.9221 68.8153 53.9767C68.5934 54.0313 68.3622 54.0361 68.1382 53.9909Z" fill="#3C91E6"/>
<path d="M80.1997 65.2453H42.1621C41.9375 65.2905 41.7057 65.2857 41.4832 65.2311C41.2608 65.1765 41.0533 65.0735 40.8759 64.9295C40.6985 64.7856 40.5555 64.6043 40.4573 64.3988C40.3591 64.1933 40.3081 63.9687 40.3081 63.7412C40.3081 63.5138 40.3591 63.2892 40.4573 63.0837C40.5555 62.8782 40.6985 62.6969 40.8759 62.553C41.0533 62.409 41.2608 62.306 41.4832 62.2514C41.7057 62.1968 41.9375 62.192 42.1621 62.2372H80.1997C80.5492 62.3077 80.8637 62.4959 81.0894 62.77C81.3151 63.0441 81.4382 63.3872 81.4382 63.7412C81.4382 64.0953 81.3151 64.4384 81.0894 64.7125C80.8637 64.9866 80.5492 65.1748 80.1997 65.2453Z" fill="#3C91E6"/>
<path d="M80.1997 76.5001H42.1621C41.9375 76.5454 41.7057 76.5406 41.4832 76.486C41.2608 76.4314 41.0533 76.3284 40.8759 76.1844C40.6985 76.0405 40.5555 75.8592 40.4573 75.6537C40.3591 75.4482 40.3081 75.2236 40.3081 74.9961C40.3081 74.7687 40.3591 74.5441 40.4573 74.3386C40.5555 74.1331 40.6985 73.9518 40.8759 73.8078C41.0533 73.6639 41.2608 73.5609 41.4832 73.5063C41.7057 73.4517 41.9375 73.4469 42.1621 73.4921H80.1997C80.5492 73.5626 80.8637 73.7508 81.0894 74.0249C81.3151 74.299 81.4382 74.6421 81.4382 74.9961C81.4382 75.3502 81.3151 75.6933 81.0894 75.9674C80.8637 76.2415 80.5492 76.4297 80.1997 76.5001Z" fill="#3C91E6"/>
<path d="M80.1997 87.5495H42.1621C41.9375 87.5947 41.7057 87.5899 41.4832 87.5353C41.2608 87.4807 41.0533 87.3777 40.8759 87.2337C40.6985 87.0898 40.5555 86.9085 40.4573 86.703C40.3591 86.4975 40.3081 86.2729 40.3081 86.0454C40.3081 85.818 40.3591 85.5934 40.4573 85.3879C40.5555 85.1824 40.6985 85.0011 40.8759 84.8572C41.0533 84.7132 41.2608 84.6102 41.4832 84.5556C41.7057 84.501 41.9375 84.4962 42.1621 84.5414H80.1997C80.5492 84.6119 80.8637 84.8001 81.0894 85.0742C81.3151 85.3483 81.4382 85.6914 81.4382 86.0454C81.4382 86.3995 81.3151 86.7426 81.0894 87.0167C80.8637 87.2908 80.5492 87.479 80.1997 87.5495Z" fill="#3C91E6"/>
<path d="M139.968 41.9176H133.41C133.188 41.9629 132.958 41.958 132.738 41.9034C132.517 41.8488 132.312 41.7459 132.136 41.6019C131.96 41.458 131.818 41.2767 131.721 41.0712C131.624 40.8657 131.573 40.641 131.573 40.4136C131.573 40.1862 131.624 39.9616 131.721 39.7561C131.818 39.5506 131.96 39.3693 132.136 39.2253C132.312 39.0814 132.517 38.9784 132.738 38.9238C132.958 38.8692 133.188 38.8644 133.41 38.9096H139.968C140.19 38.8644 140.42 38.8692 140.64 38.9238C140.861 38.9784 141.066 39.0814 141.242 39.2253C141.418 39.3693 141.56 39.5506 141.657 39.7561C141.754 39.9616 141.805 40.1862 141.805 40.4136C141.805 40.641 141.754 40.8657 141.657 41.0712C141.56 41.2767 141.418 41.458 141.242 41.6019C141.066 41.7459 140.861 41.8488 140.64 41.9034C140.42 41.958 140.19 41.9629 139.968 41.9176Z" fill="#3C91E6"/>
<path d="M139.867 65.0714H133.312C132.906 65.0714 132.517 64.9097 132.23 64.6219C131.942 64.334 131.781 63.9437 131.781 63.5367C131.781 63.1296 131.942 62.7393 132.23 62.4515C132.517 62.1636 132.906 62.002 133.312 62.002H139.867C140.273 62.002 140.663 62.1636 140.95 62.4515C141.237 62.7393 141.398 63.1296 141.398 63.5367C141.398 63.9437 141.237 64.334 140.95 64.6219C140.663 64.9097 140.273 65.0714 139.867 65.0714Z" fill="#3C91E6"/>
<path d="M169.84 41.9176H163.285C163.063 41.9629 162.833 41.958 162.613 41.9034C162.393 41.8488 162.187 41.7459 162.012 41.6019C161.836 41.458 161.694 41.2767 161.597 41.0712C161.5 40.8657 161.449 40.641 161.449 40.4136C161.449 40.1862 161.5 39.9616 161.597 39.7561C161.694 39.5506 161.836 39.3693 162.012 39.2253C162.187 39.0814 162.393 38.9784 162.613 38.9238C162.833 38.8692 163.063 38.8644 163.285 38.9096H169.84C170.186 38.9801 170.497 39.1683 170.721 39.4424C170.944 39.7165 171.067 40.0596 171.067 40.4136C171.067 40.7676 170.944 41.1108 170.721 41.3849C170.497 41.659 170.186 41.8472 169.84 41.9176Z" fill="#3C91E6"/>
<path d="M169.914 65.0714H163.22C162.805 65.0714 162.408 64.9097 162.114 64.6219C161.821 64.334 161.656 63.9437 161.656 63.5367C161.656 63.1296 161.821 62.7393 162.114 62.4515C162.408 62.1636 162.805 62.002 163.22 62.002H169.914C170.329 62.002 170.727 62.1636 171.02 62.4515C171.313 62.7393 171.478 63.1296 171.478 63.5367C171.478 63.9437 171.313 64.334 171.02 64.6219C170.727 64.9097 170.329 65.0714 169.914 65.0714Z" fill="#3C91E6"/>
<path d="M128.332 71.6193C126.641 71.6193 125.02 70.9491 123.824 69.7561C122.629 68.563 121.957 66.9449 121.957 65.2577V38.885C122.113 37.3138 122.848 35.8566 124.021 34.7966C125.193 33.7365 126.718 33.1494 128.3 33.1494C129.882 33.1494 131.408 33.7365 132.58 34.7966C133.753 35.8566 134.488 37.3138 134.644 38.885V65.2577C134.644 66.9343 133.981 68.5431 132.799 69.7344C131.617 70.9256 130.011 71.6031 128.332 71.6193ZM128.332 35.6115C127.462 35.6115 126.627 35.9564 126.012 36.5703C125.397 37.1842 125.051 38.0168 125.051 38.885V65.2577C125.051 66.1259 125.397 66.9585 126.012 67.5724C126.627 68.1863 127.462 68.5312 128.332 68.5312C129.202 68.5312 130.036 68.1863 130.651 67.5724C131.266 66.9585 131.612 66.1259 131.612 65.2577V38.885C131.612 38.0168 131.266 37.1842 130.651 36.5703C130.036 35.9564 129.202 35.6115 128.332 35.6115Z" fill="#3C91E6"/>
<path d="M174.953 71.6199C173.265 71.6036 171.651 70.9253 170.464 69.7326C169.276 68.5398 168.609 66.9289 168.609 65.2503V38.844C168.609 38.0156 168.773 37.1954 169.092 36.4301C169.411 35.6648 169.878 34.9694 170.467 34.3836C171.056 33.7979 171.756 33.3333 172.525 33.0163C173.295 32.6993 174.12 32.5361 174.953 32.5361C175.786 32.5361 176.611 32.6993 177.38 33.0163C178.15 33.3333 178.849 33.7979 179.438 34.3836C180.027 34.9694 180.495 35.6648 180.813 36.4301C181.132 37.1954 181.296 38.0156 181.296 38.844V65.2503C181.296 66.9289 180.63 68.5398 179.442 69.7326C178.254 70.9253 176.641 71.6036 174.953 71.6199ZM174.953 35.5664C174.078 35.5664 173.24 35.9117 172.622 36.5263C172.004 37.141 171.657 37.9747 171.657 38.844V65.2503C171.657 66.1195 172.004 66.9532 172.622 67.5678C173.24 68.1825 174.078 68.5279 174.953 68.5279C175.827 68.5279 176.665 68.1825 177.284 67.5678C177.902 66.9532 178.249 66.1195 178.249 65.2503V38.844C178.249 37.9747 177.902 37.141 177.284 36.5263C176.665 35.9117 175.827 35.5664 174.953 35.5664Z" fill="#3C91E6"/>
<path d="M163.184 71.6194H139.871C139.462 71.6194 139.07 71.4566 138.781 71.1666C138.491 70.8767 138.329 70.4834 138.329 70.0734V34.0199C138.345 33.6206 138.514 33.2431 138.802 32.9664C139.089 32.6897 139.473 32.5353 139.871 32.5356H163.184C163.583 32.5353 163.966 32.6897 164.253 32.9664C164.541 33.2431 164.71 33.6206 164.726 34.0199V70.0734C164.726 70.2764 164.686 70.4775 164.609 70.6651C164.531 70.8526 164.418 71.023 164.275 71.1666C164.131 71.3102 163.961 71.4241 163.774 71.5018C163.587 71.5794 163.387 71.6194 163.184 71.6194ZM141.413 68.5274H161.642V35.5659H141.413V68.5274Z" fill="#3C91E6"/>
<path d="M151.629 168.204C149.512 168.204 147.483 167.363 145.986 165.866C144.489 164.37 143.648 162.34 143.648 160.224V86.6097C143.664 86.2103 143.834 85.8327 144.123 85.5559C144.411 85.2791 144.795 85.1247 145.195 85.125H158.063C158.462 85.1247 158.847 85.2791 159.135 85.5559C159.423 85.8327 159.593 86.2103 159.609 86.6097V160.224C159.609 161.272 159.403 162.309 159.002 163.277C158.601 164.246 158.013 165.125 157.272 165.866C156.531 166.607 155.651 167.195 154.683 167.596C153.715 167.997 152.677 168.204 151.629 168.204ZM146.68 88.1562V160.224C146.68 161.536 147.201 162.795 148.129 163.723C149.058 164.651 150.316 165.172 151.629 165.172C152.276 165.173 152.917 165.044 153.514 164.795C154.111 164.545 154.652 164.18 155.107 163.719C155.561 163.259 155.92 162.713 156.162 162.113C156.404 161.513 156.524 160.871 156.516 160.224V88.1562H146.68Z" fill="#3C91E6"/>
<path d="M155.388 88.1946C154.991 88.1786 154.617 88.0091 154.342 87.7215C154.067 87.4339 153.914 87.0506 153.914 86.6519V69.9908C153.869 69.7667 153.874 69.5354 153.929 69.3134C153.983 69.0915 154.086 68.8845 154.23 68.7075C154.374 68.5305 154.555 68.3878 154.761 68.2899C154.966 68.1919 155.191 68.1411 155.418 68.1411C155.646 68.1411 155.87 68.1919 156.076 68.2899C156.281 68.3878 156.463 68.5305 156.606 68.7075C156.75 68.8845 156.853 69.0915 156.908 69.3134C156.963 69.5354 156.968 69.7667 156.922 69.9908V86.6519C156.922 87.061 156.761 87.4534 156.473 87.7427C156.185 88.032 155.795 88.1946 155.388 88.1946Z" fill="#3C91E6"/>
<path d="M147.639 88.194C147.232 88.194 146.842 88.0323 146.554 87.7445C146.266 87.4567 146.104 87.0663 146.104 86.6593V70.0845C146.104 69.6775 146.266 69.2871 146.554 68.9993C146.842 68.7115 147.232 68.5498 147.639 68.5498C148.046 68.5498 148.436 68.7115 148.724 68.9993C149.012 69.2871 149.174 69.6775 149.174 70.0845V86.6593C149.174 87.0663 149.012 87.4567 148.724 87.7445C148.436 88.0323 148.046 88.194 147.639 88.194Z" fill="#3C91E6"/>
</svg>
