<svg width="45" height="45" viewBox="0 0 45 45" fill="none" xmlns="http://www.w3.org/2000/svg">
<path d="M32.1429 28.2857H30.0857L29.3144 27.5143C31.8858 24.6857 33.4287 20.8286 33.4287 16.7143C33.4286 7.45714 25.9714 0 16.7143 0C7.45714 0 0 7.45714 0 16.7143C0 25.9714 7.45714 33.4286 16.7143 33.4286C20.8286 33.4286 24.6857 31.8857 27.5143 29.3143L28.2857 30.0856V32.1428L41.1429 45L45 41.1429L32.1429 28.2857ZM16.7143 28.2857C10.2857 28.2857 5.14286 23.1429 5.14286 16.7143C5.14286 10.2857 10.2857 5.14286 16.7143 5.14286C23.1429 5.14286 28.2857 10.2857 28.2857 16.7143C28.2857 23.1429 23.1429 28.2857 16.7143 28.2857Z" fill="black"/>
</svg>
