<svg width="63" height="64" viewBox="0 0 63 64" fill="none" xmlns="http://www.w3.org/2000/svg">
<path d="M38.0178 14.3145C40.9307 16.1699 42.9733 19.3096 43.3452 22.9541C44.5332 23.5179 45.8517 23.8422 47.2496 23.8422C52.353 23.8422 56.4893 19.6402 56.4893 14.4567C56.4893 9.27228 52.353 5.07031 47.2496 5.07031C42.195 5.07191 38.0948 9.1988 38.0178 14.3145ZM31.9647 33.5329C37.068 33.5329 41.2043 29.3301 41.2043 24.1465C41.2043 18.9629 37.0672 14.761 31.9647 14.761C26.8621 14.761 22.7234 18.9637 22.7234 24.1473C22.7234 29.3309 26.8621 33.5329 31.9647 33.5329ZM35.884 34.1726H28.0438C21.5205 34.1726 16.2135 39.5647 16.2135 46.1915V55.9317L16.2379 56.0842L16.8983 56.2943C23.1236 58.2703 28.532 58.9292 32.9836 58.9292C41.6784 58.9292 46.7181 56.4109 47.0287 56.2503L47.6459 55.9333H47.7119V46.1915C47.7143 39.5647 42.4073 34.1726 35.884 34.1726ZM51.1705 24.4828H43.3908C43.3067 27.6448 41.978 30.4922 39.8764 32.5401C45.6748 34.2916 49.9173 39.754 49.9173 46.2059V49.2074C57.5987 48.9215 62.0251 46.7099 62.3168 46.5613L62.934 46.2434H63V36.5C63 29.874 57.693 24.4828 51.1705 24.4828ZM15.752 23.8438C17.5595 23.8438 19.2412 23.3079 20.6659 22.395C21.1187 19.3942 22.7022 16.7721 24.9641 14.9862C24.9736 14.8105 24.9901 14.6364 24.9901 14.4591C24.9901 9.27468 20.853 5.07271 15.752 5.07271C10.6478 5.07271 6.51228 9.27468 6.51228 14.4591C6.51228 19.641 10.6478 23.8438 15.752 23.8438ZM24.0498 32.5401C21.9584 30.5026 20.6344 27.6704 20.5377 24.5275C20.2492 24.5059 19.9638 24.4828 19.6697 24.4828H11.8303C5.307 24.4828 0 29.874 0 36.5V46.2418L0.0243729 46.392L0.6848 46.6036C5.67888 48.1874 10.136 48.9175 14.0073 49.1475V46.2059C14.0089 39.754 18.2498 34.2932 24.0498 32.5401Z" fill="black"/>
</svg>
