<svg width="152" height="156" viewBox="0 0 152 156" fill="none" xmlns="http://www.w3.org/2000/svg">
<path d="M88.1759 127.437C81.4979 127.451 74.8828 126.145 68.7105 123.596C62.5381 121.047 56.9298 117.304 52.2073 112.582C48.4059 108.781 45.3905 104.268 43.3332 99.3009C41.2758 94.3342 40.2171 89.0109 40.2171 83.6349C40.2171 78.2589 41.2758 72.9356 43.3332 67.9689C45.3905 63.0022 48.4059 58.4893 52.2073 54.688C58.4031 48.5129 66.794 45.0455 75.5415 45.0455C84.289 45.0455 92.6799 48.5129 98.8757 54.688C103.861 59.6925 106.659 66.4685 106.659 73.5322C106.659 80.5959 103.861 87.3718 98.8757 92.3763C94.8209 96.4104 89.3338 98.675 83.6141 98.675C77.8944 98.675 72.4074 96.4104 68.3527 92.3763C65.0799 89.0907 63.2422 84.6421 63.2422 80.0046C63.2422 75.3671 65.0799 70.9185 68.3527 67.6329C68.5871 67.3985 68.9047 67.2669 69.2362 67.2669C69.5676 67.2669 69.8855 67.3985 70.1199 67.6329C70.3543 67.8673 70.4861 68.1852 70.4861 68.5166C70.4861 68.8481 70.3543 69.1659 70.1199 69.4003C67.308 72.213 65.7285 76.0274 65.7285 80.0046C65.7285 83.9818 67.308 87.7962 70.1199 90.6089C73.6998 94.1676 78.5425 96.1651 83.5903 96.1651C88.638 96.1651 93.4805 94.1676 97.0604 90.6089C101.584 86.0773 104.126 79.9356 104.126 73.5322C104.126 67.1288 101.584 60.9871 97.0604 56.4554C91.3457 50.7441 83.5971 47.5357 75.5177 47.5357C67.4383 47.5357 59.6895 50.7441 53.9748 56.4554C46.7846 63.6639 42.7468 73.4296 42.7468 83.611C42.7468 93.7924 46.7846 103.558 53.9748 110.767C58.457 115.266 63.7834 118.835 69.6483 121.271C75.5133 123.707 81.8013 124.961 88.1519 124.961C94.5025 124.961 100.791 123.707 106.656 121.271C112.521 118.835 117.847 115.266 122.329 110.767C133.708 99.3819 140.1 83.9443 140.1 67.8479C140.1 51.7515 133.708 36.3139 122.329 24.9291C111.692 14.2344 98.1119 6.94728 83.3192 3.99554C68.5266 1.0438 53.1901 2.56095 39.2625 8.35383C38.9652 8.42813 38.6512 8.39415 38.3766 8.25797C38.1021 8.12179 37.8851 7.89234 37.7644 7.61067C37.6437 7.32901 37.6273 7.01358 37.718 6.72087C37.8087 6.42816 38.0007 6.17727 38.2596 6.01323C52.6512 0.0361615 68.4944 -1.5294 83.7776 1.51534C99.0607 4.56008 113.094 12.0778 124.096 23.1139C129.973 28.9871 134.635 35.9608 137.816 43.6365C140.997 51.3121 142.634 59.5393 142.634 67.8479C142.634 76.1565 140.997 84.3836 137.816 92.0593C134.635 99.7349 129.973 106.709 124.096 112.582C119.38 117.298 113.779 121.038 107.616 123.587C101.452 126.136 94.846 127.444 88.1759 127.437Z" fill="#FFC224"/>
<path d="M30.5713 12.4145C30.3494 12.4186 30.1303 12.3632 29.9371 12.254C29.7439 12.1447 29.5834 11.9858 29.4725 11.7935C29.3882 11.65 29.3338 11.4909 29.3123 11.3258C29.2907 11.1607 29.3024 10.9929 29.347 10.8325C29.3916 10.6721 29.468 10.5223 29.5716 10.392C29.6752 10.2617 29.8039 10.1535 29.9502 10.0739L33.4373 8.21106C33.735 8.10159 34.0627 8.10569 34.3576 8.2226C34.6525 8.33951 34.894 8.56101 35.0359 8.84476C35.1778 9.1285 35.21 9.4546 35.1266 9.76067C35.0432 10.0667 34.8499 10.3313 34.5836 10.5038C33.4372 11.0292 32.2908 11.6502 31.1921 12.2712C30.998 12.3635 30.7862 12.4123 30.5713 12.4145Z" fill="#FFC224"/>
<path d="M13.6608 25.2632C13.4948 25.271 13.329 25.2454 13.1731 25.188C13.0172 25.1305 12.8745 25.0424 12.7532 24.9288C12.525 24.6817 12.3981 24.3577 12.3981 24.0212C12.3981 23.6848 12.525 23.3608 12.7532 23.1137C15.575 20.2902 18.6091 17.6872 21.8288 15.3276C22.0949 15.1312 22.428 15.0486 22.755 15.0979C23.082 15.1472 23.3761 15.3243 23.5725 15.5903C23.7689 15.8564 23.8515 16.1896 23.8022 16.5165C23.753 16.8435 23.5757 17.1375 23.3096 17.3338C20.2042 19.6547 17.2672 22.1927 14.5206 24.9288C14.2875 25.1465 13.9797 25.2662 13.6608 25.2632Z" fill="#FFC224"/>
<path d="M90.4699 155.382C88.3204 155.382 86.123 155.286 83.9258 155.143C65.3757 153.567 47.9816 145.479 34.8215 132.31C28.9461 126.441 24.2852 119.471 21.1051 111.8C17.925 104.128 16.2882 95.9048 16.2882 87.6002C16.2882 79.2955 17.925 71.0723 21.1051 63.4006C24.2852 55.7289 28.9461 48.7593 34.8215 42.8901C39.538 38.1629 45.1407 34.4125 51.3086 31.8536C57.4765 29.2947 64.0885 27.9775 70.7661 27.9775C77.4437 27.9775 84.0557 29.2947 90.2236 31.8536C96.3915 34.4125 101.994 38.1629 106.711 42.8901C110.512 46.6914 113.528 51.2042 115.585 56.171C117.642 61.1377 118.701 66.461 118.701 71.837C118.701 77.2129 117.642 82.5363 115.585 87.503C113.528 92.4697 110.512 96.9826 106.711 100.784C100.515 106.959 92.124 110.426 83.3765 110.426C74.629 110.426 66.2381 106.959 60.0423 100.784C55.0573 95.7793 52.2585 89.0035 52.2585 81.9398C52.2585 74.876 55.0573 68.1001 60.0423 63.0956C62.0406 61.0809 64.418 59.4817 67.0373 58.3905C69.6567 57.2992 72.4663 56.7373 75.3039 56.7373C78.1416 56.7373 80.9512 57.2992 83.5705 58.3905C86.1899 59.4817 88.5673 61.0809 90.5656 63.0956C92.1975 64.7161 93.4928 66.6436 94.3766 68.7669C95.2605 70.8902 95.7154 73.1674 95.7154 75.4673C95.7154 77.7672 95.2605 80.0444 94.3766 82.1677C93.4928 84.291 92.1975 86.2184 90.5656 87.839C90.3263 88.064 90.0102 88.1893 89.6818 88.1893C89.3534 88.1893 89.0373 88.064 88.7981 87.839C88.6749 87.7271 88.5767 87.5906 88.5093 87.4385C88.442 87.2863 88.4072 87.1217 88.4072 86.9553C88.4072 86.7889 88.442 86.6243 88.5093 86.4722C88.5767 86.32 88.6749 86.1836 88.7981 86.0716C91.61 83.2589 93.1897 79.4445 93.1897 75.4673C93.1897 71.4901 91.61 67.6757 88.7981 64.863C87.0317 63.0894 84.9326 61.6821 82.621 60.7219C80.3095 59.7617 77.8308 59.2673 75.3277 59.2673C72.8246 59.2673 70.3462 59.7617 68.0347 60.7219C65.7231 61.6821 63.624 63.0894 61.8576 64.863C57.3364 69.3865 54.7966 75.5203 54.7966 81.9158C54.7966 88.3114 57.3364 94.4453 61.8576 98.9688C64.6841 101.802 68.0418 104.051 71.7385 105.585C75.4351 107.119 79.3982 107.908 83.4005 107.908C87.4028 107.908 91.3657 107.119 95.0624 105.585C98.759 104.051 102.117 101.802 104.943 98.9688C108.515 95.4058 111.349 91.1731 113.282 86.5133C115.216 81.8535 116.211 76.8581 116.211 71.8131C116.211 66.7681 115.216 61.7726 113.282 57.1128C111.349 52.453 108.515 48.2204 104.943 44.6574C95.8718 35.6062 83.5807 30.523 70.7661 30.523C57.9515 30.523 45.6604 35.6062 36.589 44.6574C25.2072 56.0504 18.8139 71.4959 18.8139 87.6002C18.8139 103.704 25.2072 119.15 36.589 130.543C49.2488 143.2 65.9568 151.002 83.7886 152.582C101.62 154.163 119.44 149.422 134.129 139.189C134.259 139.089 134.408 139.018 134.566 138.978C134.725 138.939 134.89 138.932 135.051 138.959C135.212 138.986 135.366 139.046 135.503 139.135C135.64 139.223 135.758 139.339 135.848 139.475C135.949 139.609 136.021 139.762 136.061 139.924C136.101 140.086 136.108 140.255 136.081 140.42C136.055 140.585 135.995 140.743 135.906 140.884C135.816 141.026 135.699 141.148 135.562 141.243C122.331 150.457 106.593 155.392 90.4699 155.382Z" fill="#FFC224"/>
<path d="M4.58617 96.2456C4.27269 96.2465 3.97045 96.1289 3.7401 95.9163C3.50976 95.7037 3.36841 95.4117 3.3443 95.0992C2.61825 87.1957 2.92328 79.2314 4.25182 71.4067C4.32115 71.0773 4.51205 70.7862 4.78652 70.5915C5.06098 70.3967 5.39888 70.3126 5.73264 70.3558C6.05885 70.4251 6.3455 70.618 6.53253 70.8941C6.71956 71.1702 6.79235 71.508 6.73568 71.8366C5.44665 79.4409 5.15757 87.1811 5.87585 94.8604C5.89108 95.1924 5.78214 95.5183 5.57019 95.7744C5.35825 96.0305 5.05855 96.1985 4.72949 96.2456H4.58617Z" fill="#FFC224"/>
<path d="M8.07296 114.015C7.80827 114.018 7.54971 113.936 7.33489 113.781C7.12006 113.627 6.96023 113.407 6.87879 113.155C5.8601 109.797 5.03086 106.384 4.39494 102.933C4.36783 102.77 4.37367 102.603 4.41208 102.442C4.45049 102.281 4.5207 102.129 4.61861 101.995C4.71652 101.862 4.84017 101.749 4.98223 101.664C5.12428 101.579 5.28186 101.523 5.44578 101.5C5.60629 101.466 5.77214 101.465 5.93302 101.497C6.0939 101.53 6.24636 101.595 6.38083 101.69C6.5153 101.784 6.62891 101.905 6.71459 102.045C6.80027 102.185 6.85617 102.341 6.87879 102.503C7.50006 105.839 8.29729 109.14 9.26713 112.391C9.32617 112.547 9.3517 112.714 9.34212 112.881C9.33254 113.048 9.28805 113.211 9.21151 113.36C9.13497 113.508 9.0281 113.639 8.8978 113.744C8.7675 113.849 8.61671 113.925 8.45512 113.967L8.07296 114.015Z" fill="#FFC224"/>
<path d="M140.724 136.944C140.539 136.94 140.357 136.895 140.192 136.813C140.027 136.73 139.882 136.612 139.768 136.466C139.66 136.341 139.578 136.196 139.527 136.039C139.475 135.882 139.456 135.717 139.469 135.552C139.482 135.387 139.528 135.227 139.604 135.081C139.68 134.934 139.785 134.804 139.912 134.698C141.44 133.409 142.969 131.976 144.402 130.543C144.641 130.318 144.957 130.192 145.285 130.192C145.614 130.192 145.93 130.318 146.169 130.543C146.292 130.655 146.391 130.791 146.458 130.943C146.525 131.095 146.56 131.26 146.56 131.426C146.56 131.593 146.525 131.757 146.458 131.91C146.391 132.062 146.292 132.198 146.169 132.31C144.688 133.839 143.112 135.272 141.536 136.609C141.431 136.718 141.304 136.803 141.165 136.861C141.025 136.918 140.875 136.947 140.724 136.944Z" fill="#FFC224"/>
<path d="M123.431 48.1439C123.164 48.1545 122.902 48.0756 122.686 47.9198C122.469 47.7639 122.311 47.5402 122.237 47.2841C121.909 46.2403 121.334 45.2911 120.561 44.5176C119.787 43.7441 118.838 43.1691 117.794 42.8418C117.537 42.7622 117.312 42.6043 117.149 42.3902C116.986 42.1761 116.895 41.9164 116.887 41.6476C116.892 41.3724 116.982 41.1054 117.144 40.8831C117.307 40.6609 117.534 40.4941 117.794 40.4056C118.837 40.0902 119.786 39.525 120.56 38.7592C121.335 37.9933 121.91 37.0499 122.237 36.0111C122.31 35.7503 122.466 35.5205 122.681 35.3567C122.897 35.1929 123.16 35.1039 123.431 35.1035C123.7 35.1114 123.959 35.2031 124.173 35.3658C124.388 35.5286 124.545 35.7542 124.625 36.0111C124.952 37.0499 125.527 37.9933 126.301 38.7592C127.075 39.525 128.025 40.0902 129.067 40.4056C129.328 40.4941 129.555 40.6609 129.717 40.8831C129.88 41.1054 129.97 41.3724 129.975 41.6476C129.967 41.9164 129.875 42.1761 129.713 42.3902C129.55 42.6043 129.324 42.7622 129.067 42.8418C128.023 43.1691 127.074 43.7441 126.301 44.5176C125.527 45.2911 124.952 46.2403 124.625 47.2841C124.544 47.5359 124.384 47.7552 124.169 47.9099C123.954 48.0646 123.695 48.1466 123.431 48.1439ZM121.042 41.6476C121.975 42.294 122.784 43.103 123.431 44.036C124.051 43.0812 124.864 42.2675 125.819 41.6476C124.886 41.0013 124.077 40.1922 123.431 39.2593C122.759 40.1703 121.954 40.9754 121.042 41.6476Z" fill="#FFC224"/>
<path d="M141.485 25.4554C141.216 25.4475 140.957 25.3558 140.743 25.1931C140.529 25.0304 140.371 24.8047 140.291 24.5478C139.846 23.1134 139.056 21.81 137.99 20.7522C136.924 19.6945 135.615 18.9147 134.177 18.4814C133.921 18.3911 133.701 18.2225 133.546 17.9995C133.392 17.7765 133.312 17.5106 133.317 17.2394C133.315 16.9747 133.397 16.7161 133.551 16.5013C133.706 16.2865 133.925 16.1267 134.177 16.0453C135.614 15.5963 136.922 14.8055 137.986 13.7406C139.051 12.6758 139.842 11.3686 140.291 9.93109C140.372 9.67922 140.532 9.45993 140.747 9.30525C140.962 9.15058 141.221 9.0686 141.485 9.07126C141.752 9.06065 142.014 9.13957 142.231 9.2954C142.447 9.45123 142.605 9.67501 142.679 9.93109C143.128 11.3686 143.919 12.6758 144.984 13.7406C146.049 14.8055 147.356 15.5963 148.794 16.0453C149.051 16.1248 149.276 16.2827 149.439 16.4969C149.602 16.711 149.693 16.9706 149.701 17.2394C149.696 17.5147 149.606 17.7817 149.444 18.0039C149.281 18.2262 149.054 18.393 148.794 18.4814C147.356 18.9147 146.046 19.6945 144.98 20.7522C143.914 21.81 143.124 23.1134 142.679 24.5478C142.606 24.8086 142.45 25.0384 142.235 25.2022C142.019 25.3661 141.756 25.455 141.485 25.4554ZM137.616 17.2394C139.189 18.2313 140.513 19.5715 141.485 21.1564C142.488 19.5796 143.825 18.2423 145.402 17.2394C143.817 16.2669 142.477 14.9431 141.485 13.3703C140.525 14.9522 139.198 16.2794 137.616 17.2394Z" fill="#FFC224"/>
<path d="M6.54408 44.8954C6.27296 44.9008 6.00703 44.8207 5.78408 44.6663C5.56112 44.512 5.39243 44.2913 5.30209 44.0356C4.99422 42.9894 4.43161 42.0359 3.66465 41.2606C2.89769 40.4853 1.95037 39.9124 0.907564 39.5932C0.64679 39.5203 0.416941 39.3642 0.253102 39.1486C0.0892621 38.933 0.000456204 38.6698 3.98751e-05 38.3991C-0.00213692 38.122 0.0848619 37.8516 0.24832 37.628C0.411779 37.4043 0.642961 37.2392 0.907564 37.1571C1.94692 36.8463 2.89265 36.2819 3.65976 35.5148C4.42686 34.7477 4.99124 33.8019 5.30209 32.7625C5.39053 32.5018 5.55726 32.2748 5.77953 32.1124C6.0018 31.9499 6.26883 31.8601 6.54408 31.855C6.81104 31.8696 7.06743 31.9638 7.28029 32.1256C7.49315 32.2874 7.65271 32.5092 7.73825 32.7625C8.04959 33.8094 8.61986 34.7609 9.39633 35.529C10.1728 36.2971 11.1304 36.8571 12.1806 37.1571C12.4363 37.2475 12.6569 37.4161 12.8113 37.639C12.9656 37.862 13.0457 38.1279 13.0403 38.3991C13.043 38.6637 12.961 38.9224 12.8064 39.1372C12.6517 39.352 12.4325 39.5118 12.1806 39.5932C11.129 39.9056 10.1718 40.4754 9.3961 41.2511C8.62037 42.0269 8.05058 42.984 7.73825 44.0356C7.65062 44.2836 7.48918 44.4988 7.27574 44.6525C7.0623 44.8062 6.80705 44.8909 6.54408 44.8954ZM4.10792 38.3991C5.06586 39.0313 5.89302 39.8422 6.54408 40.7874C7.16399 39.8327 7.97771 39.019 8.93242 38.3991C7.99945 37.7527 7.19043 36.9437 6.54408 36.0107C5.86755 36.9342 5.04463 37.7409 4.10792 38.3991Z" fill="#FFC224"/>
<path d="M143.396 120.272C143.129 120.283 142.867 120.204 142.651 120.048C142.434 119.892 142.276 119.669 142.202 119.412C141.72 117.874 140.873 116.476 139.734 115.336C138.594 114.197 137.196 113.35 135.658 112.868C135.405 112.78 135.185 112.616 135.03 112.398C134.875 112.179 134.792 111.918 134.792 111.65C134.792 111.382 134.875 111.121 135.03 110.903C135.185 110.685 135.405 110.52 135.658 110.432C137.19 109.955 138.586 109.116 139.725 107.985C140.864 106.854 141.713 105.465 142.202 103.936C142.275 103.675 142.431 103.445 142.646 103.281C142.862 103.118 143.125 103.029 143.396 103.028C143.665 103.036 143.924 103.128 144.138 103.291C144.353 103.453 144.51 103.679 144.59 103.936C145.063 105.473 145.908 106.87 147.05 108.003C148.191 109.136 149.594 109.97 151.134 110.432C151.387 110.52 151.606 110.685 151.762 110.903C151.917 111.121 152 111.382 152 111.65C152 111.918 151.917 112.179 151.762 112.398C151.606 112.616 151.387 112.78 151.134 112.868C149.588 113.335 148.182 114.177 147.04 115.319C145.898 116.46 145.057 117.867 144.59 119.412C144.509 119.664 144.349 119.884 144.134 120.038C143.919 120.193 143.661 120.275 143.396 120.272ZM139.097 111.674C140.853 112.722 142.329 114.181 143.396 115.925C144.463 114.181 145.938 112.722 147.695 111.674C145.927 110.621 144.449 109.143 143.396 107.375C142.343 109.143 140.865 110.621 139.097 111.674Z" fill="#FFC224"/>
<path d="M33.4387 112.056C33.1722 112.067 32.9099 111.988 32.6935 111.832C32.4771 111.676 32.319 111.452 32.2445 111.196C31.9172 110.153 31.3422 109.203 30.5687 108.43C29.7952 107.656 28.8459 107.081 27.8021 106.754C27.5452 106.674 27.3197 106.517 27.1569 106.302C26.9942 106.088 26.9024 105.829 26.8945 105.56C26.8949 105.289 26.984 105.026 27.1478 104.81C27.3117 104.595 27.5413 104.438 27.8021 104.366C28.8421 104.031 29.7876 103.454 30.5601 102.681C31.3326 101.909 31.91 100.963 32.2445 99.9233C32.3186 99.6638 32.4752 99.4354 32.6907 99.2729C32.9062 99.1104 33.1688 99.0225 33.4387 99.0225C33.7086 99.0225 33.971 99.1104 34.1864 99.2729C34.4019 99.4354 34.5587 99.6638 34.6329 99.9233C34.9673 100.963 35.5448 101.909 36.3173 102.681C37.0898 103.454 38.035 104.031 39.0751 104.366C39.3359 104.438 39.5657 104.595 39.7295 104.81C39.8934 105.026 39.9822 105.289 39.9826 105.56C39.9747 105.829 39.8832 106.088 39.7205 106.302C39.5577 106.517 39.332 106.674 39.0751 106.754C38.0313 107.081 37.0822 107.656 36.3087 108.43C35.5351 109.203 34.9602 110.153 34.6329 111.196C34.5584 111.452 34.4003 111.676 34.1839 111.832C33.9675 111.988 33.7052 112.067 33.4387 112.056ZM31.0503 105.56C31.9833 106.206 32.7923 107.015 33.4387 107.948C34.0586 106.993 34.8723 106.18 35.827 105.56C34.8941 104.913 34.085 104.104 33.4387 103.171C32.7665 104.082 31.9614 104.888 31.0503 105.56Z" fill="#FFC224"/>
<path d="M28.5176 41.0264C28.2487 41.0186 27.9893 40.9268 27.7752 40.7641C27.5611 40.6014 27.403 40.3758 27.3234 40.1189C26.7851 38.4146 25.8443 36.865 24.5805 35.6012C23.3168 34.3374 21.7672 33.3966 20.063 32.8583C19.8022 32.7854 19.5724 32.6292 19.4085 32.4137C19.2447 32.1981 19.1558 31.9349 19.1553 31.6641C19.1632 31.3953 19.255 31.1356 19.4177 30.9215C19.5805 30.7073 19.8061 30.5495 20.063 30.4699C21.7749 29.9463 23.3321 29.0104 24.598 27.7445C25.8639 26.4786 26.7997 24.9213 27.3234 23.2093C27.403 22.9524 27.5611 22.7268 27.7752 22.5641C27.9893 22.4014 28.2487 22.3096 28.5176 22.3018C28.7883 22.3022 29.0516 22.391 29.2672 22.5549C29.4828 22.7187 29.6388 22.9485 29.7117 23.2093C30.2428 24.9174 31.1814 26.4708 32.4462 27.7356C33.711 29.0005 35.2643 29.9388 36.9724 30.4699C37.2293 30.5495 37.4548 30.7073 37.6175 30.9215C37.7803 31.1356 37.872 31.3953 37.8799 31.6641C37.8795 31.9349 37.7907 32.1981 37.6269 32.4137C37.463 32.6292 37.2332 32.7854 36.9724 32.8583C35.2719 33.4037 33.726 34.3469 32.4632 35.6097C31.2005 36.8725 30.2572 38.4183 29.7117 40.1189C29.6388 40.3796 29.4828 40.6094 29.2672 40.7733C29.0516 40.9371 28.7883 41.026 28.5176 41.0264ZM23.5499 31.6641C25.6078 32.8622 27.3195 34.5739 28.5176 36.6319C29.7156 34.5739 31.4276 32.8622 33.4855 31.6641C31.4179 30.4786 29.7031 28.7639 28.5176 26.6963C27.3321 28.7639 25.6175 30.4786 23.5499 31.6641Z" fill="#FFC224"/>
</svg>
